HIERARCHY
ROOT Hips
{
  OFFSET 0 0 0
  CHANNELS 6 Xposition Yposition Zposition Zrotation Xrotation Yrotation
  JOINT Spine
  {
    OFFSET 0 10 0
    CHANNELS 3 Zrotation Xrotation Yrotation
    JOINT Neck
    {
      OFFSET 0 30 0
      CHANNELS 3 Zrotation Xrotation Yrotation
      JOINT Head
      {
        OFFSET 0 8 0
        CHANNELS 3 Zrotation Xrotation Yrotation
        End Site
        {
          OFFSET 0 10 0
        }
      }
    }
    JOINT LeftArm
    {
      OFFSET 15 30 0
      CHANNELS 3 Zrotation Xrotation Yrotation
      JOINT LeftForeArm
      {
        OFFSET 25 0 0
        CHANNELS 3 Zrotation Xrotation Yrotation
        JOINT LeftHand
        {
          OFFSET 25 0 0
          CHANNELS 3 Zrotation Xrotation Yrotation
          End Site
          {
            OFFSET 10 0 0
          }
        }
      }
    }
    JOINT RightArm
    {
      OFFSET -15 30 0
      CHANNELS 3 Zrotation Xrotation Yrotation
      JOINT RightForeArm
      {
        OFFSET -25 0 0
        CHANNELS 3 Zrotation Xrotation Yrotation
        JOINT RightHand
        {
          OFFSET -25 0 0
          CHANNELS 3 Zrotation Xrotation Yrotation
          End Site
          {
            OFFSET -10 0 0
          }
        }
      }
    }
  }
  JOINT LeftUpLeg
  {
    OFFSET 10 -10 0
    CHANNELS 3 Zrotation Xrotation Yrotation
    JOINT LeftLeg
    {
      OFFSET 0 -35 0
      CHANNELS 3 Zrotation Xrotation Yrotation
      JOINT LeftToe
      {
        OFFSET 0 -40 0
        CHANNELS 3 Zrotation Xrotation Yrotation
        JOINT LeftToeEnd
        {
          OFFSET 0 0 0
          CHANNELS 3 Zrotation Xrotation Yrotation
          End Site
          {
            OFFSET 0 0 15
          }
        }
      }
    }
  }
  JOINT RightUpLeg
  {
    OFFSET -10 -10 0
    CHANNELS 3 Zrotation Xrotation Yrotation
    JOINT RightLeg
    {
      OFFSET 0 -35 0
      CHANNELS 3 Zrotation Xrotation Yrotation
      JOINT RightToe
      {
        OFFSET 0 -40 0
        CHANNELS 3 Zrotation Xrotation Yrotation
        JOINT RightToeEnd
        {
          OFFSET 0 0 0
          CHANNELS 3 Zrotation Xrotation Yrotation
          End Site
          {
            OFFSET 0 0 15
          }
        }
      }
    }
  }
}
MOTION
Frames:	7
Frame Time:	0.0333333
90.6093 87.5882 -63.5199 5.50449 4.64725 -134.673 8.3632 13.3519 5.88692 -8.54616 -20.2415 1.76917 4.11894 36.2835 -0.672357 -86.8867 26.0085 -1.33438 16.9549 -5.33453 -28.1403 -1.05663 1.03955 -2.16654 82.0671 17.8745 1.12652 -13.9553 -2.94957 22.6495 0.47429 5.7446 -0.208654 3.97189 -27.66 -1.44511 1.16488 57.4771 -0.0906843 6.08644 -17.8737 -11.1224 7.95139e-016 1.59028e-015 3.18055e-015 0.170375 -6.26318 -4.2119 -0.275197 22.3489 1.65093 -2.1057 -14.8032 -4.25743 3.97569e-016 7.95139e-016 6.36111e-015 
90.304 87.5442 -64.6289 5.19657 4.60905 -129.856 8.24424 13.7691 6.30187 -9.12152 -20.472 1.48423 4.70824 36.3268 -1.32863 -87.0988 24.2207 -1.42153 16.7375 -5.15446 -27.6739 -1.0085 2.64902 -2.10418 81.2486 19.4147 1.41683 -14.163 -3.0625 23.0711 0.436441 4.9766 -0.196221 5.67841 -29.2515 2.93825 0.660672 54.3155 0.137679 6.58368 -20.1763 -9.07749 -7.95139e-016 0 3.18055e-015 0.701831 -4.70586 -5.44648 -0.280832 22.6529 1.60836 -2.80548 -15.9555 -8.43979 -7.95139e-016 -1.59028e-015 6.36111e-015 
89.9541 87.4765 -65.5322 5.18417 4.63198 -124.849 8.38553 14.1183 6.60428 -9.12974 -20.5828 1.26185 4.67422 36.2596 -2.05807 -87.0324 23.7259 -1.1001 16.8409 -5.24311 -27.9378 -0.953002 3.2647 -2.08628 80.7255 20.1533 2.06971 -14.375 -3.16748 23.4734 0.446778 5.24939 -0.203802 6.94557 -31.0017 6.45242 0.0942707 50.5242 0.317528 7.56395 -21.6238 -5.41522 -7.95139e-016 0 -6.36111e-015 1.5908 -3.32645 -6.83084 -0.28206 22.4245 1.59744 -3.6199 -16.7095 -12.3107 1.98785e-015 -7.95139e-016 -6.36111e-015 
89.3082 87.4069 -66.0831 5.67503 4.19601 -120.489 8.89712 13.6291 7.35994 -10.022 -20.334 1.22834 5.19606 35.8207 -2.55693 -88.3402 22.7255 -0.349414 16.9385 -5.31045 -28.1451 -0.926561 4.26335 -2.07996 79.649 21.1158 2.63945 -14.4891 -3.23611 23.7312 0.432875 6.06069 -0.220467 7.45463 -32.989 8.88731 -0.557362 46.1972 0.468408 8.64712 -21.1438 -0.992515 3.97569e-016 -1.2921e-015 3.18055e-015 1.91661 -2.49765 -9.10115 -0.287527 21.5493 1.55066 -4.13953 -17.2208 -14.5372 7.95139e-016 7.95139e-016 3.18055e-015 
88.6161 87.4436 -67.211 5.2631 5.06392 -116.447 8.56413 14.2561 8.08356 -8.79761 -20.2973 1.51233 4.33815 35.9745 -2.27018 -87.8981 23.3151 0.354096 16.8979 -5.26942 -28.0847 -1.1732 1.50554 -2.20006 79.9162 23.3601 3.45238 -14.7254 -3.35369 24.1364 0.421328 4.47073 -0.186104 9.05668 -32.8773 11.2568 -1.24389 41.7623 0.676025 9.42541 -20.004 4.22378 -7.95139e-016 -1.88845e-015 -1.59028e-015 4.4246 1.12777 -6.28219 -0.218059 18.7633 1.82062 -5.8664 -16.4583 -21.1452 -1.59028e-015 1.59028e-015 6.36111e-015 
87.7025 87.2126 -67.5704 5.27637 4.87417 -112.651 8.77347 14.1525 8.60439 -9.40789 -20.448 1.58903 4.92303 36.4412 -2.4122 -89.209 22.1174 1.18362 16.649 -5.13075 -27.5983 -0.858484 1.61511 -2.04771 79.052 24.9985 4.86765 -14.7325 -3.3566 24.1314 0.431718 3.51286 -0.182954 8.58284 -34.3692 12.914 -1.56364 38.2644 0.680476 9.50348 -17.5362 10.7247 -8.18987e-033 -5.90142e-016 -7.95139e-016 4.59547 2.67974 -9.31434 -0.22948 17.4168 1.78568 -6.24518 -17.0672 -21.9534 6.62086e-032 3.97569e-016 -9.54166e-015 
86.6712 87.083 -67.9814 5.54422 5.12275 -109.51 8.84561 13.6828 10.1128 -9.42632 -19.9775 1.86727 5.46902 36.2866 -2.9371 -90.1309 22.1768 2.45772 16.4307 -4.9211 -27.1627 -1.26519 0.888767 -2.21062 79.0141 25.671 6.04991 -14.7768 -3.36897 24.1721 0.458924 2.45965 -0.164107 7.90156 -35.9868 10.2973 -1.48973 36.2266 0.541965 9.34081 -16.5185 15.954 1.72418e-034 1.2424e-017 -7.95139e-016 5.7913 4.74223 -9.71363 -0.196591 15.0507 1.74426 -6.73521 -16.5702 -24.3608 1.19271e-015 -1.59028e-015 -6.36111e-015 
